PathFileType	4	(X/Y/Z)	RBDS03\RBDS03runT25.trc																																																																																														
DataRate	CameraRate	NumFrames	NumMarkers	Units	OrigDataRate	OrigDataStartFrame	OrigNumFrames																																																																																										
150	150	5	32	mm	150	1125	4500																																																																																										
Frame#	Time	L.ASIS			L.Heel.Bottom			L.Heel.Lateral			L.Heel.Top			L.Iliac.Crest			L.MT1			L.MT5			L.PSIS			L.Shank.Bottom.Lateral			L.Shank.Bottom.Medial			L.Shank.Top.Lateral			L.Shank.Top.Medial			L.Thigh.Bottom.Lateral			L.Thigh.Bottom.Medial			L.Thigh.Top.Lateral			L.Thigh.Top.Medial			R.ASIS			R.MT5			R.Heel.Bottom			R.Heel.Lateral			R.Heel.Top			R.Iliac.Crest			R.MT1			R.PSIS			R.Shank.Bottom.Lateral			R.Shank.Bottom.Medial			R.Shank.Top.Lateral			R.Shank.Top.Medial			R.Thigh.Bottom.Lateral			R.Thigh.Bottom.Medial			R.Thigh.Top.Lateral			R.Thigh.Top.Medial		
		X1	Y1	Z1	X2	Y2	Z2	X3	Y3	Z3	X4	Y4	Z4	X5	Y5	Z5	X6	Y6	Z6	X7	Y7	Z7	X8	Y8	Z8	X9	Y9	Z9	X10	Y10	Z10	X11	Y11	Z11	X12	Y12	Z12	X13	Y13	Z13	X14	Y14	Z14	X15	Y15	Z15	X16	Y16	Z16	X17	Y17	Z17	X18	Y18	Z18	X19	Y19	Z19	X20	Y20	Z20	X21	Y21	Z21	X22	Y22	Z22	X23	Y23	Z23	X24	Y24	Z24	X25	Y25	Z25	X26	Y26	Z26	X27	Y27	Z27	X28	Y28	Z28	X29	Y29	Z29	X30	Y30	Z30	X31	Y31	Z31	X32	Y32	Z32
																																																																																																	
1126	7.5	2272.631246	1066.76322	937.8575811	1690.446573	206.4012792	988.8056904	1723.459729	187.7427549	943.994449	1732.352183	234.9113081	985.8555436	2220.032983	1141.018335	887.0564798	1864.202293	70.46280291	1042.836007	1829.572613	75.502531	936.4272312	2102.457113	1115.42474	990.8507864	1831.613242	269.8283251	930.2981894	1792.787059	292.8500197	960.8234976	1864.359143	341.6677352	916.7569176	1825.948194	365.2848952	946.1709078	2046.0149	657.9889127	910.9449573	1990.388054	684.7116344	951.6616102	2078.94829	760.4905345	889.0658008	2024.119739	786.7487584	924.8114386	2259.360546	1091.295304	1143.994272	2236.867061	94.16408789	1165.221951	2071.83591	161.4790748	1063.84805	2104.445409	167.3784244	1116.714024	2098.599267	202.5452152	1068.709545	2199.28925	1172.440531	1181.770826	2276.437312	94.12876853	1056.982559	2099.238885	1124.065969	1074.446819	2173.142135	259.3322917	1137.49102	2148.193051	278.8359811	1096.75695	2196.249284	338.5463063	1158.674567	2168.997103	354.5778441	1115.443612	2329.426133	699.788739	1200.057722	2269.683665	669.3349555	1172.491938	2274.898711	794.4954376	1213.882451	2218.782922	766.1295393	1186.085762
1127	7.506666667	2275.662218	1070.969611	939.0687206	1682.314071	219.1315445	985.6667509	1714.871161	198.8351619	941.2457565	1725.218794	246.1740081	982.5730626	2223.901009	1145.765113	887.9259595	1851.803337	77.50828014	1042.02829	1817.760494	81.76271797	935.3403216	2105.020577	1120.571988	990.5992474	1824.615073	277.9804579	928.0026665	1785.714351	301.3760508	958.149335	1858.1906	349.4930222	914.8356481	1819.753933	373.4597533	943.915522	2043.385712	663.8525798	910.8721906	1987.96855	691.3064672	951.3922382	2077.871219	765.7480064	889.0324739	2023.381252	792.8525105	924.6758187	2260.767976	1095.047869	1144.87007	2266.083876	88.14048467	1163.579257	2097.148083	144.5723441	1061.836369	2128.977017	152.3516798	1114.914179	2120.884434	187.42384	1067.23857	2200.995189	1177.902156	1181.97327	2306.046733	91.87319031	1055.516171	2101.520434	1129.03396	1074.28555	2190.953275	249.6948585	1136.051752	2165.261586	267.5677467	1094.927285	2208.601429	330.2320319	1157.270955	2180.977459	344.5038243	1113.644501	2325.141488	700.5926943	1198.885808	2265.050413	670.8755873	1171.340851	2271.813963	795.9108962	1212.794882	2215.362829	768.2401733	1184.989458
1128	7.513333333	2278.292437	1074.782459	939.9570994	1673.92242	231.8467842	982.5336703	1706.013088	209.9922534	938.5239005	1717.699706	257.4829536	979.2882927	2227.094461	1150.062062	888.6964925	1839.122156	85.37824678	1041.329718	1805.691138	88.65487835	934.469608	2107.323772	1125.144117	990.450828	1817.527822	286.190674	925.8187546	1778.632347	310.173807	955.4996047	1852.275242	357.1738889	912.9727625	1813.883772	381.7048046	941.6213942	2041.912669	668.8401252	910.7395898	1986.579438	696.8885745	950.9332423	2077.718845	770.1842806	888.9330421	2023.364094	797.9952659	924.2244188	2262.200051	1098.215792	1145.575999	2294.849083	83.77880396	1162.292165	2122.817581	129.1739158	1060.08518	2153.776354	138.7671181	1113.357753	2143.443749	173.5683387	1065.957151	2202.768862	1182.533569	1182.25443	2334.932903	91.21150595	1054.404557	2103.607225	1133.332165	1074.226008	2208.590076	241.0105541	1134.743446	2182.379889	257.2250617	1093.163934	2220.751304	322.5063728	1155.880014	2193.000639	335.0268553	1111.795027	2320.453277	700.5211971	1197.855039	2260.021286	671.7274035	1170.146307	2268.472304	796.5105138	1211.950898	2211.731791	769.677366	1184.018206
1129	7.52	2280.532347	1078.16288	940.5221134	1665.296316	244.5598576	979.4878613	1696.892209	221.2059365	935.8932156	1709.847065	268.8293171	976.0757625	2229.607794	1153.888269	889.3550228	1826.16005	93.92414803	1040.757849	1793.311389	96.11970023	933.8175448	2109.368172	1129.084776	990.4049729	1810.316189	294.456473	923.7572778	1771.549784	319.2109709	952.9603818	1846.544007	364.7144131	911.1855699	1808.310341	389.9979801	939.3779148	2041.582947	672.8783535	910.5277684	1986.216362	701.3860294	950.2903411	2078.471497	773.7498901	888.7602885	2024.042711	802.1228813	923.4655207	2263.652773	1100.796879	1146.110582	2322.841316	81.12022639	1161.345885	2148.540001	115.4167573	1058.59193	2178.540375	126.7478497	1112.043124	2166.009702	161.1013663	1064.855557	2204.575563	1186.271953	1182.612021	2362.804168	92.13749563	1053.628873	2105.491425	1136.919988	1074.266692	2225.859727	233.3618844	1133.559308	2199.33176	247.9107985	1091.486339	2232.566853	315.4641823	1154.505368	2204.894453	326.2614188	1109.92552	2315.439622	699.6683631	1196.972941	2254.698379	671.9871506	1168.885102	2264.933579	796.3759468	1211.360019	2207.98167	770.5291462	1183.134485
1130	7.526666667	2282.415359	1081.079506	940.78556	1656.516556	257.2969382	976.6012477	1687.567368	232.4882585	933.4079253	1701.767869	280.2130469	973.0068078	2231.464514	1157.221514	889.8955328	1812.975877	102.9867294	1040.302965	1780.625836	104.0967364	933.3569502	2111.163302	1132.351359	990.45797	1802.989237	302.7780426	921.8251726	1764.514616	328.4482937	950.6126574	1840.958675	372.1272111	909.490227	1803.033174	398.3157343	937.2727885	2042.346939	675.9244983	910.2208858	1986.84371	704.7552779	949.4830048	2080.069381	776.4247171	888.5101582	2025.366931	805.2086676	922.4343067	2265.11403	1102.795243	1146.482578	2349.727406	80.15420105	1160.709188	2173.975018	103.3749664	1057.343414	2202.932083	116.365987	1110.957609	2188.278341	150.0959242	1063.914478	2206.374936	1189.081597	1183.034339	2389.359692	94.58587853	1053.15416	2107.172748	1139.77327	1074.401901	2242.568335	226.7975754	1132.491488	2215.88079	239.6913772	1089.921261	2243.924251	309.1750945	1153.160689	2216.476282	318.2924858	1108.084061	2310.182025	698.1539291	1196.226513	2249.183051	671.7607316	1167.536608	2261.252846	795.6116824	1211.000882	2204.187369	770.8929062	1182.293202
